<svg width="67" height="67" viewBox="0 0 67 67" fill="none" xmlns="http://www.w3.org/2000/svg">
<path d="M5.58301 28.3617V39.5284C5.58301 45.1117 8.37467 47.9034 13.958 47.9034H17.9501C18.983 47.9034 20.0159 48.2105 20.9093 48.7409L29.0609 53.8496C36.0959 58.2605 41.8747 55.0501 41.8747 46.7588V21.1313C41.8747 12.8121 36.0959 9.62963 29.0609 14.0405L20.9093 19.1492C20.0159 19.6796 18.983 19.9867 17.9501 19.9867H13.958C8.37467 19.9867 5.58301 22.7784 5.58301 28.3617Z" stroke="#BDD4F7" stroke-width="1.5"/>
<path d="M63.4993 50.5149L54.3604 45.2385" stroke="#BDD4F7" stroke-width="1.5" stroke-miterlimit="10" stroke-linecap="round" stroke-linejoin="round"/>
<path d="M64.208 35.3933L53.6553 35.3933" stroke="#BDD4F7" stroke-width="1.5" stroke-miterlimit="10" stroke-linecap="round" stroke-linejoin="round"/>
<path d="M63.4264 18.8582L54.2875 24.1345" stroke="#BDD4F7" stroke-width="1.5" stroke-miterlimit="10" stroke-linecap="round" stroke-linejoin="round"/>
</svg>
